HIERARCHY
ROOT Hips
{
  OFFSET 0.0 0.0 0.0
  CHANNELS 6 Xposition Yposition Zposition Zrotation Yrotation Xrotation
  JOINT LHipJoint
  {
    OFFSET 0.0 0.0 0.0
    CHANNELS 3 Zrotation Yrotation Xrotation
    JOINT LeftUpLeg
    {
      OFFSET 1.363059998 -1.794630051 0.839290023
      CHANNELS 3 Zrotation Yrotation Xrotation
      JOINT LeftLeg
      {
        OFFSET 2.448110104 -6.726130009 0.0
        CHANNELS 3 Zrotation Yrotation Xrotation
        JOINT LeftFoot
        {
          OFFSET 2.562200069 -7.039589882 0.0
          CHANNELS 3 Zrotation Yrotation Xrotation
          JOINT LeftToeBase
          {
            OFFSET 0.157639995 -0.433109999 2.322550058
            CHANNELS 3 Zrotation Yrotation Xrotation
            End Site
            {
              OFFSET 0.0 -0.0 1.189659953
            }
          }
        }
      }
    }
  }
  JOINT RHipJoint
  {
    OFFSET 0.0 0.0 0.0
    CHANNELS 3 Zrotation Yrotation Xrotation
    JOINT RightUpLeg
    {
      OFFSET -1.305520058 -1.794630051 0.839290023
      CHANNELS 3 Zrotation Yrotation Xrotation
      JOINT RightLeg
      {
        OFFSET -2.54253006 -6.985549927 0.0
        CHANNELS 3 Zrotation Yrotation Xrotation
        JOINT RightFoot
        {
          OFFSET -2.568259954 -7.056230068 0.0
          CHANNELS 3 Zrotation Yrotation Xrotation
          JOINT RightToeBase
          {
            OFFSET -0.164729998 -0.452589989 2.363149881
            CHANNELS 3 Zrotation Yrotation Xrotation
            End Site
            {
              OFFSET -0.0 -0.0 1.21081996
            }
          }
        }
      }
    }
  }
  JOINT LowerBack
  {
    OFFSET 0.0 0.0 0.0
    CHANNELS 3 Zrotation Yrotation Xrotation
    JOINT Spine
    {
      OFFSET 0.028270001 2.035589933 -0.193379998
      CHANNELS 3 Zrotation Yrotation Xrotation
      JOINT Spine1
      {
        OFFSET 0.05672 2.04885006 -0.042750001
        CHANNELS 3 Zrotation Yrotation Xrotation
        JOINT Neck
        {
          OFFSET 0.0 0.0 0.0
          CHANNELS 3 Zrotation Yrotation Xrotation
          JOINT Neck1
          {
            OFFSET -0.054170001 1.74624002 0.172020003
            CHANNELS 3 Zrotation Yrotation Xrotation
            JOINT Head
            {
              OFFSET 0.10407 1.761360049 -0.123970002
              CHANNELS 3 Zrotation Yrotation Xrotation
              End Site
              {
                OFFSET 0.0372 1.770439982 -0.062410001
              }
            }
          }
        }
        JOINT LeftShoulder
        {
          OFFSET 0.0 0.0 0.0
          CHANNELS 3 Zrotation Yrotation Xrotation
          JOINT LeftArm
          {
            OFFSET 3.362410069 1.200889945 -0.311210006
            CHANNELS 3 Zrotation Yrotation Xrotation
            JOINT LeftForeArm
            {
              OFFSET 4.982999802 -0.0 -0.0
              CHANNELS 3 Zrotation Yrotation Xrotation
              JOINT LeftHand
              {
                OFFSET 3.483560085 -0.0 -0.0
                CHANNELS 3 Zrotation Yrotation Xrotation
                JOINT LeftFingerBase
                {
                  OFFSET 0.0 0.0 0.0
                  CHANNELS 3 Zrotation Yrotation Xrotation
                  JOINT LeftHandIndex1
                  {
                    OFFSET 0.715260029 -0.0 -0.0
                    CHANNELS 3 Zrotation Yrotation Xrotation
                    End Site
                    {
                      OFFSET 0.576659977 -0.0 -0.0
                    }
                  }
                }
                JOINT LThumb
                {
                  OFFSET 0.0 0.0 0.0
                  CHANNELS 3 Zrotation Yrotation Xrotation
                  End Site
                  {
                    OFFSET 0.585470021 -0.0 0.585470021
                  }
                }
              }
            }
          }
        }
        JOINT RightShoulder
        {
          OFFSET 0.0 0.0 0.0
          CHANNELS 3 Zrotation Yrotation Xrotation
          JOINT RightArm
          {
            OFFSET -3.136600018 1.374050021 -0.404650003
            CHANNELS 3 Zrotation Yrotation Xrotation
            JOINT RightForeArm
            {
              OFFSET -5.241899967 -0.0 -0.0
              CHANNELS 3 Zrotation Yrotation Xrotation
              JOINT RightHand
              {
                OFFSET -3.444169998 -0.0 -0.0
                CHANNELS 3 Zrotation Yrotation Xrotation
                JOINT RightFingerBase
                {
                  OFFSET 0.0 0.0 0.0
                  CHANNELS 3 Zrotation Yrotation Xrotation
                  JOINT RightHandIndex1
                  {
                    OFFSET -0.622529984 -0.0 -0.0
                    CHANNELS 3 Zrotation Yrotation Xrotation
                    End Site
                    {
                      OFFSET -0.501900017 -0.0 -0.0
                    }
                  }
                }
                JOINT RThumb
                {
                  OFFSET 0.0 0.0 0.0
                  CHANNELS 3 Zrotation Yrotation Xrotation
                  End Site
                  {
                    OFFSET -0.509559989 -0.0 0.509559989
                  }
                }
              }
            }
          }
        }
      }
    }
  }
}
MOTION
Frames: 8
Frame Time: 0.0083333
-24.777498245 18.126399994 -17.201395035 176.190002441 24.776292801 176.822998047 0.0 -0.0 0.0 -26.934196472 11.638898849 5.388401508 0.0 -0.0 0.0 -0.094599932 5.911499977 -4.605099678 0.157499984 -2.557100296 -7.047899723 0.0 -0.0 0.0 8.959206581 11.949497223 -66.537879944 -26.631502151 -18.91119194 109.733589172 -2.036899805 5.24849987 -25.848896027 -0.368099958 3.897099257 -10.787499428 -10.183401108 -3.73010087 15.743597984 1.766500354 -5.466901302 7.209499359 8.413701057 -2.713099718 0.178199977 -11.311100006 -12.345100403 0.578800082 13.742502213 -16.612102509 -1.785600185 5.415997982 -8.30729866 1.496500015 0.0 -0.0 0.0 -71.998390198 -24.728998184 20.800901413 25.209100723 -36.416900635 -8.41369915 0.0 -0.0 6.267799854 22.223501205 -7.571200848 -3.081400156 -7.125 0.0 0.0 -3.34209919 21.81419754 1.864000082 0.0 -0.0 0.0 53.000198364 22.135704041 -20.131093979 -122.117332458 55.718788147 -87.414619446 0.0 0.0 -25.626199722 -30.25859642 -10.276099205 5.941399574 7.125 -0.0 0.0 -2.89440012 -41.816295624 -0.227500126 
-24.737197876 18.147499084 -17.26039505 -178.457000732 26.392803192 178.565002441 0.0 -0.0 0.0 -21.187200546 12.853401184 5.893799305 0.0 -0.0 0.0 -0.089299992 5.907000542 -4.948900223 0.214499995 -2.981800556 -8.227999687 0.0 -0.0 0.0 15.913000107 14.213003159 -65.110397339 -25.927396774 -19.135908127 107.573989868 -1.955300093 1.499900579 -26.03619957 -0.291200042 3.470299959 -9.590900421 -6.072801113 -3.699399948 16.119695663 3.073400021 -4.747499943 7.640599728 7.417200565 -2.236400127 -0.020399997 -13.367796898 -11.179800034 3.577798843 16.627401352 -15.184301376 -4.047600269 6.948600292 -7.740300179 0.582500041 0.0 -0.0 0.0 -70.877403259 -26.014497757 25.859397888 24.208892822 -35.384292603 -7.827194691 0.0 0.0 -0.06110001 28.14389801 -8.986200333 -4.776200294 -7.125 0.0 0.0 0.873500168 19.813001633 -0.525799811 0.0 -0.0 0.0 52.922199249 20.872400284 -20.426700592 -123.66859436 55.250400543 -88.692886353 0.0 0.0 -26.753700256 -30.154195786 -10.369700432 5.969698429 7.125 -0.0 0.0 -2.79610014 -41.912204742 -0.213200152 
-24.743797302 18.151399612 -17.307094574 -177.406005859 26.566696167 179.220001221 0.0 -0.0 0.0 -20.237100601 12.528598785 5.865000725 0.0 -0.0 0.0 -0.108099975 6.36590004 -5.072700024 0.242399976 -3.168600082 -8.748597145 0.0 -0.0 0.0 17.276607513 14.277193069 -65.645195007 -25.468566895 -19.267393112 106.178901672 -1.847500205 -0.572399914 -25.930402756 -0.32009998 3.637000561 -10.057599068 -5.464099407 -3.804699183 16.792098999 3.713099718 -4.816699982 7.282401562 7.840999126 -2.231599808 -0.743899941 -13.726198196 -11.062898636 3.826700211 16.214200974 -15.076500893 -4.124400616 6.904699802 -7.68970108 0.494300008 0.0 -0.0 0.0 -71.294395447 -26.725297928 27.508996964 24.021999359 -35.1875 -7.719202518 0.0 -0.0 2.206600189 27.057508469 -7.629101276 -3.879400969 -7.125 0.0 0.0 0.171399966 21.426200867 -0.097000003 0.0 -0.0 0.0 52.318199158 22.106590271 -19.548496246 -121.787094116 55.814605713 -87.141601562 0.0 0.0 -25.784099579 -30.447299957 -9.998601913 5.827300072 7.125 -0.0 0.0 -3.075399637 -41.517902374 -0.264399856 
-24.769798279 18.13699913 -17.369794846 -179.160995483 26.621603012 178.746002197 0.0 -0.0 0.0 -22.26940155 12.165101051 5.85670042 0.0 -0.0 0.0 -0.130800009 6.875199318 -5.195600033 0.237599999 -3.13689971 -8.660000801 0.0 -0.0 0.0 15.374498367 13.690099716 -66.884910583 -25.196901321 -19.339801788 105.35710144 -1.850400329 -0.988999963 -26.100700378 -0.212700024 2.969400406 -8.193602562 -6.754400253 -3.719300508 17.118396759 3.326499939 -4.961999893 7.129899979 8.215100288 -2.326200008 -0.956300139 -11.255700111 -11.89509964 0.783500195 13.972400665 -15.975500107 -2.285900593 5.554698944 -8.002599716 1.255399942 0.0 -0.0 0.0 -71.672706604 -27.765203476 27.660503387 24.375204086 -35.558498383 -7.923702717 0.0 -0.0 5.086599827 28.754798889 -8.475700378 -4.623798847 -7.125 0.0 0.0 1.345100284 20.334199905 -0.794100165 0.0 -0.0 0.0 52.214008331 20.486404419 -20.13999939 -123.903625488 55.176704407 -88.885910034 0.0 0.0 -27.34180069 -30.481395721 -10.018597603 5.846698761 7.125 -0.0 0.0 -3.105300188 -41.54460907 -0.264999539 
-24.794597626 18.129600525 -17.431993484 179.761993408 26.588590622 178.802001953 0.0 -0.0 0.0 -23.665201187 11.587100029 5.618100166 0.0 -0.0 0.0 -0.146899983 7.180699825 -5.149199009 0.229299992 -3.082098961 -8.507499695 0.0 -0.0 0.0 14.199895859 13.133598328 -68.137199402 -24.881490707 -19.418802261 104.406707764 -1.87139976 -1.937799811 -26.612398148 -0.099399991 2.033100367 -5.597099304 -7.179000378 -3.997200012 16.838100433 2.894500017 -5.426400185 7.05700016 8.033301353 -2.578500032 -0.80129993 -10.96049881 -11.735499382 0.239499465 14.23019886 -15.74379921 -1.851199269 5.553500175 -7.861399174 1.442099452 0.0 -0.0 0.0 -72.101295471 -28.139400482 28.134792328 25.266397476 -36.475101471 -8.447800636 0.0 -0.0 3.137000084 31.771196365 -9.693200111 -5.95320034 -7.125 0.0 0.0 3.386199474 18.630695343 -2.130701065 0.0 -0.0 0.0 52.451808929 22.063201904 -19.969900131 -122.740112305 55.534416199 -87.928627014 0.0 0.0 -26.678497314 -30.152397156 -9.769499779 5.629499435 7.125 -0.0 0.0 -2.819900274 -41.225296021 -0.262799948 
-24.807697296 18.130399704 -17.489494324 178.832992554 26.961294174 178.832000732 0.0 -0.0 0.0 -24.80100441 11.403900146 5.328100204 0.0 -0.0 0.0 -0.158199966 7.405300617 -5.183699608 0.192599967 -2.826599598 -7.796399593 0.0 -0.0 0.0 13.554503441 12.578901291 -69.222175598 -24.528282166 -19.501096725 103.346611023 -1.838200331 -3.390799999 -27.012798309 -0.06629999 1.661699891 -4.571699619 -7.86979866 -4.158499718 16.690597534 2.982199669 -5.841499805 6.450900078 8.599201202 -2.800300121 -1.207700133 -15.224097252 -10.772098541 3.297698975 17.42040062 -14.836600304 -2.551999569 7.422299385 -7.540599823 1.215399861 0.0 -0.0 0.0 -73.942901611 -27.371696472 27.367498398 26.41869545 -37.619197845 -9.141998291 0.0 -0.0 4.948499203 25.418502808 -10.162299156 -4.792899609 -7.125 0.0 0.0 -1.134400368 18.755899429 0.709599912 0.0 -0.0 0.0 51.997104645 22.501605988 -19.167606354 -122.265304565 55.675388336 -87.536903381 0.0 0.0 -26.442399979 -30.219491959 -9.621198654 5.560199261 7.125 -0.0 0.0 -2.885699749 -41.062091827 -0.28050071 
-24.805297852 18.125200272 -17.529994965 178.134994507 27.078294754 179.195007324 0.0 -0.0 0.0 -25.614700317 10.845198631 4.881901741 0.0 -0.0 0.0 -0.165799975 7.576899529 -5.294799328 0.149500027 -2.491200209 -6.865301132 0.0 -0.0 0.0 13.177203178 12.129400253 -70.632400513 -24.164480209 -19.579008102 102.258895874 -1.79550004 -4.759801388 -27.390102386 -0.0305 1.12719965 -3.098799467 -8.171499252 -3.765999556 16.581697464 2.466300011 -5.346199512 6.733298779 8.116998672 -2.559300184 -0.968400002 -11.412401199 -11.760900497 1.053500056 15.6060009 -15.773200035 -2.797998905 6.103800297 -7.918100834 1.196899772 0.0 -0.0 0.0 -73.591194153 -29.829307556 27.902698517 26.841598511 -38.027797699 -9.401396751 0.0 -0.0 7.857699871 22.511001587 -12.181900024 -4.998000622 -7.125 0.0 0.0 -3.271800756 16.84040451 2.187299728 0.0 -0.0 0.0 52.637512207 22.110706329 -20.863798141 -123.034492493 55.445598602 -88.171211243 0.0 0.0 -26.564903259 -30.651506424 -9.417699814 5.538600445 7.125 -0.0 0.0 -3.277899742 -40.870990753 -0.334200084 
-24.804798126 18.120700836 -17.592594147 177.483001709 26.456205368 179.23500061 0.0 -0.0 0.0 -26.333295822 9.790300369 5.149600029 0.0 -0.0 0.0 -0.171200022 7.714400768 -5.440799236 0.136299983 -2.379800081 -6.556499004 0.0 -0.0 0.0 12.793299675 10.702900887 -71.473083496 -23.897289276 -19.631885529 101.462593079 -1.917099833 -5.456700325 -28.57500267 -0.001 0.205200016 -0.563699901 -9.08880043 -4.49119997 16.764606476 2.899900198 -6.528599739 6.143600464 9.319299698 -3.166699886 -1.287299991 -12.48709774 -11.206397057 0.844099641 15.158896446 -15.115698814 -1.842700362 6.132799625 -7.568500042 1.463300228 0.0 -0.0 0.0 -74.159286499 -29.418395996 28.354600906 26.523601532 -37.721103668 -9.206201553 0.0 -0.0 9.959098816 24.099998474 -12.819198608 -5.667999268 -7.125 0.0 0.0 -2.203400135 15.989596367 1.512300134 0.0 -0.0 0.0 52.037094116 22.098695755 -18.716899872 -123.406410217 55.331672668 -88.477416992 0.0 0.0 -26.240299225 -31.370506287 -9.32589817 5.642600536 7.125 -0.0 0.0 -3.921200037 -40.835887909 -0.403399557 
